<mxfile host="app.diagrams.net" modified="2020-12-28T02:18:31.648Z" agent="5.0 (Windows NT 10.0; Win64; x64) AppleWebKit/537.36 (KHTML, like Gecko) Chrome/86.0.4240.198 Safari/537.36" etag="DDRH6hYBizX38g4Ht2Q8" version="14.1.2" type="github">
  <diagram id="BIFD0itbEsLKPEQYxmJw" name="Page-1">
    <mxGraphModel dx="652" dy="374" grid="1" gridSize="10" guides="1" tooltips="1" connect="1" arrows="1" fold="1" page="1" pageScale="1" pageWidth="827" pageHeight="1169" math="0" shadow="0">
      <root>
        <mxCell id="0" />
        <mxCell id="1" parent="0" />
        <mxCell id="5naSUm5lGmLeOfdFWZ7L-22" value="需求管理流程" style="swimlane;html=1;childLayout=stackLayout;startSize=20;rounded=0;shadow=0;labelBackgroundColor=none;strokeWidth=1;fontFamily=Verdana;fontSize=8;align=center;" parent="1" vertex="1">
          <mxGeometry width="820" height="850" as="geometry">
            <mxRectangle x="20" y="940" width="60" height="20" as="alternateBounds" />
          </mxGeometry>
        </mxCell>
        <mxCell id="5naSUm5lGmLeOfdFWZ7L-23" value="输入" style="swimlane;html=1;startSize=20;dashed=1;" parent="5naSUm5lGmLeOfdFWZ7L-22" vertex="1">
          <mxGeometry y="20" width="160" height="830" as="geometry" />
        </mxCell>
        <mxCell id="5naSUm5lGmLeOfdFWZ7L-68" value="技术协议/合同/软件研制任务通知" style="shape=document;whiteSpace=wrap;html=1;boundedLbl=1;fontSize=12;" parent="5naSUm5lGmLeOfdFWZ7L-23" vertex="1">
          <mxGeometry x="20" y="32.5" width="120" height="65" as="geometry" />
        </mxCell>
        <mxCell id="5naSUm5lGmLeOfdFWZ7L-151" value="软件研制任务书" style="shape=document;whiteSpace=wrap;html=1;boundedLbl=1;shadow=1;fontSize=12;" parent="5naSUm5lGmLeOfdFWZ7L-23" vertex="1">
          <mxGeometry x="20" y="320" width="120" height="41" as="geometry" />
        </mxCell>
        <mxCell id="5naSUm5lGmLeOfdFWZ7L-157" value="软件研制任务书变更申请" style="shape=document;whiteSpace=wrap;html=1;boundedLbl=1;shadow=1;fontSize=12;" parent="5naSUm5lGmLeOfdFWZ7L-23" vertex="1">
          <mxGeometry x="20" y="500" width="120" height="41" as="geometry" />
        </mxCell>
        <mxCell id="5naSUm5lGmLeOfdFWZ7L-166" value="软件开发计划" style="shape=document;whiteSpace=wrap;html=1;boundedLbl=1;shadow=1;fontSize=12;" parent="5naSUm5lGmLeOfdFWZ7L-23" vertex="1">
          <mxGeometry x="20" y="600" width="120" height="41" as="geometry" />
        </mxCell>
        <mxCell id="5naSUm5lGmLeOfdFWZ7L-167" value="阶段工作产品" style="shape=document;whiteSpace=wrap;html=1;boundedLbl=1;shadow=1;fontSize=12;" parent="5naSUm5lGmLeOfdFWZ7L-23" vertex="1">
          <mxGeometry x="20" y="647" width="120" height="41" as="geometry" />
        </mxCell>
        <mxCell id="5naSUm5lGmLeOfdFWZ7L-168" value="需求跟踪矩阵" style="shape=document;whiteSpace=wrap;html=1;boundedLbl=1;shadow=1;fontSize=12;" parent="5naSUm5lGmLeOfdFWZ7L-23" vertex="1">
          <mxGeometry x="20" y="697" width="120" height="41" as="geometry" />
        </mxCell>
        <mxCell id="5naSUm5lGmLeOfdFWZ7L-169" value="需求状态跟踪表" style="shape=document;whiteSpace=wrap;html=1;boundedLbl=1;shadow=1;fontSize=12;" parent="5naSUm5lGmLeOfdFWZ7L-23" vertex="1">
          <mxGeometry x="20" y="747" width="120" height="41" as="geometry" />
        </mxCell>
        <mxCell id="5naSUm5lGmLeOfdFWZ7L-49" value="项目负责人" style="swimlane;html=1;startSize=20;dashed=1;" parent="5naSUm5lGmLeOfdFWZ7L-22" vertex="1">
          <mxGeometry x="160" y="20" width="260" height="830" as="geometry" />
        </mxCell>
        <mxCell id="5naSUm5lGmLeOfdFWZ7L-172" style="edgeStyle=elbowEdgeStyle;rounded=0;orthogonalLoop=1;jettySize=auto;html=1;entryX=0.5;entryY=0;entryDx=0;entryDy=0;fontSize=12;endArrow=none;endFill=0;" parent="5naSUm5lGmLeOfdFWZ7L-49" source="5naSUm5lGmLeOfdFWZ7L-170" target="5naSUm5lGmLeOfdFWZ7L-171" edge="1">
          <mxGeometry relative="1" as="geometry" />
        </mxCell>
        <mxCell id="5naSUm5lGmLeOfdFWZ7L-170" value="检查需求一致性" style="rounded=0;whiteSpace=wrap;html=1;shadow=1;fontSize=12;" parent="5naSUm5lGmLeOfdFWZ7L-49" vertex="1">
          <mxGeometry x="50.5" y="605.5" width="143" height="30" as="geometry" />
        </mxCell>
        <mxCell id="5naSUm5lGmLeOfdFWZ7L-178" style="edgeStyle=elbowEdgeStyle;rounded=0;orthogonalLoop=1;jettySize=auto;html=1;endArrow=none;endFill=0;fontSize=12;" parent="5naSUm5lGmLeOfdFWZ7L-49" source="5naSUm5lGmLeOfdFWZ7L-171" target="5naSUm5lGmLeOfdFWZ7L-173" edge="1">
          <mxGeometry relative="1" as="geometry" />
        </mxCell>
        <mxCell id="5naSUm5lGmLeOfdFWZ7L-210" style="edgeStyle=orthogonalEdgeStyle;rounded=0;sketch=0;orthogonalLoop=1;jettySize=auto;html=1;entryX=0.5;entryY=0;entryDx=0;entryDy=0;endArrow=none;endFill=0;strokeColor=#000000;exitX=1;exitY=0.5;exitDx=0;exitDy=0;" parent="5naSUm5lGmLeOfdFWZ7L-49" source="5naSUm5lGmLeOfdFWZ7L-171" edge="1">
          <mxGeometry relative="1" as="geometry">
            <mxPoint x="177.39999999999998" y="685" as="sourcePoint" />
            <mxPoint x="121" y="770" as="targetPoint" />
            <Array as="points">
              <mxPoint x="249" y="675" />
              <mxPoint x="249" y="760" />
              <mxPoint x="121" y="760" />
            </Array>
          </mxGeometry>
        </mxCell>
        <mxCell id="5naSUm5lGmLeOfdFWZ7L-171" value="一致？" style="rhombus;whiteSpace=wrap;html=1;shadow=1;fontSize=12;" parent="5naSUm5lGmLeOfdFWZ7L-49" vertex="1">
          <mxGeometry x="24" y="650" width="193" height="50" as="geometry" />
        </mxCell>
        <mxCell id="5naSUm5lGmLeOfdFWZ7L-179" style="edgeStyle=elbowEdgeStyle;rounded=0;orthogonalLoop=1;jettySize=auto;html=1;endArrow=none;endFill=0;fontSize=12;" parent="5naSUm5lGmLeOfdFWZ7L-49" source="5naSUm5lGmLeOfdFWZ7L-173" target="5naSUm5lGmLeOfdFWZ7L-174" edge="1">
          <mxGeometry relative="1" as="geometry" />
        </mxCell>
        <mxCell id="5naSUm5lGmLeOfdFWZ7L-173" value="确定来源和理由，制定、启动纠正措施" style="rounded=0;whiteSpace=wrap;html=1;shadow=1;fontSize=12;" parent="5naSUm5lGmLeOfdFWZ7L-49" vertex="1">
          <mxGeometry x="14" y="720" width="213" height="30" as="geometry" />
        </mxCell>
        <mxCell id="5naSUm5lGmLeOfdFWZ7L-174" value="更新需求跟踪矩阵和需求状态跟踪表" style="rounded=0;whiteSpace=wrap;html=1;shadow=1;fontSize=12;" parent="5naSUm5lGmLeOfdFWZ7L-49" vertex="1">
          <mxGeometry x="14" y="770" width="216" height="30" as="geometry" />
        </mxCell>
        <mxCell id="5naSUm5lGmLeOfdFWZ7L-211" value="一致" style="text;html=1;strokeColor=none;fillColor=none;align=center;verticalAlign=middle;whiteSpace=wrap;rounded=0;dashed=1;sketch=0;" parent="5naSUm5lGmLeOfdFWZ7L-49" vertex="1">
          <mxGeometry x="214" y="650" width="40" height="20" as="geometry" />
        </mxCell>
        <mxCell id="5naSUm5lGmLeOfdFWZ7L-212" value="不一致" style="text;html=1;strokeColor=none;fillColor=none;align=center;verticalAlign=middle;whiteSpace=wrap;rounded=0;dashed=1;sketch=0;" parent="5naSUm5lGmLeOfdFWZ7L-49" vertex="1">
          <mxGeometry x="130" y="700" width="40" height="20" as="geometry" />
        </mxCell>
        <mxCell id="5naSUm5lGmLeOfdFWZ7L-58" value="相关人员" style="swimlane;html=1;startSize=20;dashed=1;" parent="5naSUm5lGmLeOfdFWZ7L-22" vertex="1">
          <mxGeometry x="420" y="20" width="190" height="830" as="geometry" />
        </mxCell>
        <mxCell id="5naSUm5lGmLeOfdFWZ7L-65" value="输出" style="swimlane;html=1;startSize=20;dashed=1;" parent="5naSUm5lGmLeOfdFWZ7L-22" vertex="1">
          <mxGeometry x="610" y="20" width="210" height="830" as="geometry" />
        </mxCell>
        <mxCell id="5naSUm5lGmLeOfdFWZ7L-136" value="需求状态跟踪表" style="shape=document;whiteSpace=wrap;html=1;boundedLbl=1;shadow=1;fontSize=12;" parent="5naSUm5lGmLeOfdFWZ7L-65" vertex="1">
          <mxGeometry x="47" y="230" width="120" height="41" as="geometry" />
        </mxCell>
        <mxCell id="5naSUm5lGmLeOfdFWZ7L-147" value="软件工作产品评审报告" style="shape=document;whiteSpace=wrap;html=1;boundedLbl=1;shadow=1;fontSize=12;" parent="5naSUm5lGmLeOfdFWZ7L-65" vertex="1">
          <mxGeometry x="47" y="130" width="120" height="41" as="geometry" />
        </mxCell>
        <mxCell id="5naSUm5lGmLeOfdFWZ7L-148" value="软件会议纪要" style="shape=document;whiteSpace=wrap;html=1;boundedLbl=1;shadow=1;fontSize=12;" parent="5naSUm5lGmLeOfdFWZ7L-65" vertex="1">
          <mxGeometry x="47" y="30" width="120" height="41" as="geometry" />
        </mxCell>
        <mxCell id="5naSUm5lGmLeOfdFWZ7L-149" value="软件研制任务书" style="shape=document;whiteSpace=wrap;html=1;boundedLbl=1;shadow=1;fontSize=12;" parent="5naSUm5lGmLeOfdFWZ7L-65" vertex="1">
          <mxGeometry x="47" y="80" width="120" height="41" as="geometry" />
        </mxCell>
        <mxCell id="5naSUm5lGmLeOfdFWZ7L-154" value="软件需求规格说明" style="shape=document;whiteSpace=wrap;html=1;boundedLbl=1;shadow=1;fontSize=12;" parent="5naSUm5lGmLeOfdFWZ7L-65" vertex="1">
          <mxGeometry x="47" y="320" width="120" height="30" as="geometry" />
        </mxCell>
        <mxCell id="5naSUm5lGmLeOfdFWZ7L-165" value="变更后的软件研制任务书及相关工作产品" style="shape=document;whiteSpace=wrap;html=1;boundedLbl=1;shadow=1;fontSize=12;" parent="5naSUm5lGmLeOfdFWZ7L-65" vertex="1">
          <mxGeometry x="47" y="500" width="120" height="41" as="geometry" />
        </mxCell>
        <mxCell id="5naSUm5lGmLeOfdFWZ7L-187" value="需求跟踪矩阵" style="shape=document;whiteSpace=wrap;html=1;boundedLbl=1;shadow=1;fontSize=12;" parent="5naSUm5lGmLeOfdFWZ7L-65" vertex="1">
          <mxGeometry x="44" y="710" width="120" height="30" as="geometry" />
        </mxCell>
        <mxCell id="5naSUm5lGmLeOfdFWZ7L-190" value="需求状态跟踪表" style="shape=document;whiteSpace=wrap;html=1;boundedLbl=1;shadow=1;fontSize=12;" parent="5naSUm5lGmLeOfdFWZ7L-65" vertex="1">
          <mxGeometry x="47" y="770" width="120" height="30" as="geometry" />
        </mxCell>
        <mxCell id="5naSUm5lGmLeOfdFWZ7L-196" value="软件工作产品评审报告" style="shape=document;whiteSpace=wrap;html=1;boundedLbl=1;shadow=1;fontSize=12;" parent="5naSUm5lGmLeOfdFWZ7L-65" vertex="1">
          <mxGeometry x="47" y="384.5" width="120" height="41" as="geometry" />
        </mxCell>
        <mxCell id="5naSUm5lGmLeOfdFWZ7L-182" style="edgeStyle=orthogonalEdgeStyle;rounded=0;sketch=0;orthogonalLoop=1;jettySize=auto;html=1;endArrow=none;endFill=0;" parent="5naSUm5lGmLeOfdFWZ7L-22" source="5naSUm5lGmLeOfdFWZ7L-166" target="5naSUm5lGmLeOfdFWZ7L-170" edge="1">
          <mxGeometry relative="1" as="geometry">
            <Array as="points">
              <mxPoint x="157" y="641" />
              <mxPoint x="157" y="641" />
            </Array>
          </mxGeometry>
        </mxCell>
        <mxCell id="5naSUm5lGmLeOfdFWZ7L-183" style="edgeStyle=orthogonalEdgeStyle;rounded=0;sketch=0;orthogonalLoop=1;jettySize=auto;html=1;endArrow=none;endFill=0;" parent="5naSUm5lGmLeOfdFWZ7L-22" source="5naSUm5lGmLeOfdFWZ7L-167" target="5naSUm5lGmLeOfdFWZ7L-170" edge="1">
          <mxGeometry relative="1" as="geometry">
            <Array as="points">
              <mxPoint x="167" y="688" />
              <mxPoint x="167" y="640" />
            </Array>
          </mxGeometry>
        </mxCell>
        <mxCell id="5naSUm5lGmLeOfdFWZ7L-185" style="edgeStyle=orthogonalEdgeStyle;rounded=0;sketch=0;orthogonalLoop=1;jettySize=auto;html=1;endArrow=none;endFill=0;" parent="5naSUm5lGmLeOfdFWZ7L-22" source="5naSUm5lGmLeOfdFWZ7L-168" target="5naSUm5lGmLeOfdFWZ7L-170" edge="1">
          <mxGeometry relative="1" as="geometry">
            <Array as="points">
              <mxPoint x="167" y="738" />
              <mxPoint x="167" y="640" />
            </Array>
          </mxGeometry>
        </mxCell>
        <mxCell id="5naSUm5lGmLeOfdFWZ7L-186" style="edgeStyle=orthogonalEdgeStyle;rounded=0;sketch=0;orthogonalLoop=1;jettySize=auto;html=1;endArrow=none;endFill=0;" parent="5naSUm5lGmLeOfdFWZ7L-22" source="5naSUm5lGmLeOfdFWZ7L-169" target="5naSUm5lGmLeOfdFWZ7L-170" edge="1">
          <mxGeometry relative="1" as="geometry">
            <Array as="points">
              <mxPoint x="167" y="788" />
              <mxPoint x="167" y="640" />
            </Array>
          </mxGeometry>
        </mxCell>
        <mxCell id="5naSUm5lGmLeOfdFWZ7L-192" style="edgeStyle=orthogonalEdgeStyle;rounded=0;sketch=0;orthogonalLoop=1;jettySize=auto;html=1;endArrow=none;endFill=0;strokeColor=#000000;" parent="5naSUm5lGmLeOfdFWZ7L-22" source="5naSUm5lGmLeOfdFWZ7L-174" target="5naSUm5lGmLeOfdFWZ7L-190" edge="1">
          <mxGeometry relative="1" as="geometry" />
        </mxCell>
        <mxCell id="5naSUm5lGmLeOfdFWZ7L-193" style="edgeStyle=orthogonalEdgeStyle;rounded=0;sketch=0;orthogonalLoop=1;jettySize=auto;html=1;endArrow=none;endFill=0;strokeColor=#000000;" parent="5naSUm5lGmLeOfdFWZ7L-22" source="5naSUm5lGmLeOfdFWZ7L-174" target="5naSUm5lGmLeOfdFWZ7L-187" edge="1">
          <mxGeometry relative="1" as="geometry">
            <Array as="points">
              <mxPoint x="627" y="805" />
              <mxPoint x="627" y="745" />
            </Array>
          </mxGeometry>
        </mxCell>
        <mxCell id="5naSUm5lGmLeOfdFWZ7L-201" style="edgeStyle=orthogonalEdgeStyle;rounded=0;sketch=0;orthogonalLoop=1;jettySize=auto;html=1;endArrow=none;endFill=0;strokeColor=#000000;" parent="1" source="5naSUm5lGmLeOfdFWZ7L-69" target="5naSUm5lGmLeOfdFWZ7L-134" edge="1">
          <mxGeometry relative="1" as="geometry">
            <Array as="points">
              <mxPoint x="337" y="120" />
              <mxPoint x="337" y="120" />
            </Array>
          </mxGeometry>
        </mxCell>
        <mxCell id="5naSUm5lGmLeOfdFWZ7L-69" value="需求获取与理解" style="rounded=0;whiteSpace=wrap;html=1;shadow=1;fontSize=12;" parent="1" vertex="1">
          <mxGeometry x="217" y="70" width="300" height="30" as="geometry" />
        </mxCell>
        <mxCell id="5naSUm5lGmLeOfdFWZ7L-73" style="edgeStyle=orthogonalEdgeStyle;rounded=0;orthogonalLoop=1;jettySize=auto;html=1;fontSize=12;endArrow=none;endFill=0;" parent="1" source="5naSUm5lGmLeOfdFWZ7L-68" target="5naSUm5lGmLeOfdFWZ7L-69" edge="1">
          <mxGeometry relative="1" as="geometry" />
        </mxCell>
        <mxCell id="5naSUm5lGmLeOfdFWZ7L-205" style="edgeStyle=orthogonalEdgeStyle;rounded=0;sketch=0;orthogonalLoop=1;jettySize=auto;html=1;endArrow=none;endFill=0;strokeColor=#000000;" parent="1" source="5naSUm5lGmLeOfdFWZ7L-127" target="5naSUm5lGmLeOfdFWZ7L-136" edge="1">
          <mxGeometry relative="1" as="geometry" />
        </mxCell>
        <mxCell id="5naSUm5lGmLeOfdFWZ7L-206" style="edgeStyle=orthogonalEdgeStyle;rounded=0;sketch=0;orthogonalLoop=1;jettySize=auto;html=1;endArrow=none;endFill=0;strokeColor=#000000;" parent="1" source="5naSUm5lGmLeOfdFWZ7L-127" target="5naSUm5lGmLeOfdFWZ7L-146" edge="1">
          <mxGeometry relative="1" as="geometry">
            <Array as="points">
              <mxPoint x="627" y="270" />
              <mxPoint x="627" y="220" />
            </Array>
          </mxGeometry>
        </mxCell>
        <mxCell id="5naSUm5lGmLeOfdFWZ7L-207" style="edgeStyle=orthogonalEdgeStyle;rounded=0;sketch=0;orthogonalLoop=1;jettySize=auto;html=1;endArrow=none;endFill=0;strokeColor=#000000;" parent="1" source="5naSUm5lGmLeOfdFWZ7L-127" target="5naSUm5lGmLeOfdFWZ7L-147" edge="1">
          <mxGeometry relative="1" as="geometry">
            <Array as="points">
              <mxPoint x="627" y="270" />
              <mxPoint x="627" y="170" />
            </Array>
          </mxGeometry>
        </mxCell>
        <mxCell id="5naSUm5lGmLeOfdFWZ7L-208" style="edgeStyle=orthogonalEdgeStyle;rounded=0;sketch=0;orthogonalLoop=1;jettySize=auto;html=1;endArrow=none;endFill=0;strokeColor=#000000;" parent="1" source="5naSUm5lGmLeOfdFWZ7L-127" target="5naSUm5lGmLeOfdFWZ7L-149" edge="1">
          <mxGeometry relative="1" as="geometry">
            <Array as="points">
              <mxPoint x="627" y="270" />
              <mxPoint x="627" y="120" />
            </Array>
          </mxGeometry>
        </mxCell>
        <mxCell id="5naSUm5lGmLeOfdFWZ7L-209" style="edgeStyle=orthogonalEdgeStyle;rounded=0;sketch=0;orthogonalLoop=1;jettySize=auto;html=1;endArrow=none;endFill=0;strokeColor=#000000;" parent="1" source="5naSUm5lGmLeOfdFWZ7L-127" target="5naSUm5lGmLeOfdFWZ7L-148" edge="1">
          <mxGeometry relative="1" as="geometry">
            <Array as="points">
              <mxPoint x="627" y="270" />
              <mxPoint x="627" y="70" />
            </Array>
          </mxGeometry>
        </mxCell>
        <mxCell id="5naSUm5lGmLeOfdFWZ7L-127" value="建立需求跟踪矩阵、需求状态表" style="rounded=0;whiteSpace=wrap;html=1;shadow=1;fontSize=12;" parent="1" vertex="1">
          <mxGeometry x="247" y="255.5" width="160" height="30" as="geometry" />
        </mxCell>
        <mxCell id="5naSUm5lGmLeOfdFWZ7L-146" value="需求跟踪矩阵" style="shape=document;whiteSpace=wrap;html=1;boundedLbl=1;shadow=1;fontSize=12;" parent="1" vertex="1">
          <mxGeometry x="657" y="199" width="120" height="41" as="geometry" />
        </mxCell>
        <mxCell id="5naSUm5lGmLeOfdFWZ7L-203" style="edgeStyle=orthogonalEdgeStyle;rounded=0;sketch=0;orthogonalLoop=1;jettySize=auto;html=1;endArrow=none;endFill=0;strokeColor=#000000;" parent="1" source="5naSUm5lGmLeOfdFWZ7L-135" target="5naSUm5lGmLeOfdFWZ7L-127" edge="1">
          <mxGeometry relative="1" as="geometry">
            <Array as="points">
              <mxPoint x="337" y="250" />
              <mxPoint x="337" y="250" />
            </Array>
          </mxGeometry>
        </mxCell>
        <mxCell id="5naSUm5lGmLeOfdFWZ7L-135" value="评审《软件研制任务书》，纳入功能基线" style="rounded=0;whiteSpace=wrap;html=1;shadow=1;fontSize=12;" parent="1" vertex="1">
          <mxGeometry x="217" y="190" width="300" height="30" as="geometry" />
        </mxCell>
        <mxCell id="5naSUm5lGmLeOfdFWZ7L-202" style="edgeStyle=orthogonalEdgeStyle;rounded=0;sketch=0;orthogonalLoop=1;jettySize=auto;html=1;endArrow=none;endFill=0;strokeColor=#000000;" parent="1" source="5naSUm5lGmLeOfdFWZ7L-134" target="5naSUm5lGmLeOfdFWZ7L-135" edge="1">
          <mxGeometry relative="1" as="geometry">
            <Array as="points">
              <mxPoint x="337" y="180" />
              <mxPoint x="337" y="180" />
            </Array>
          </mxGeometry>
        </mxCell>
        <mxCell id="5naSUm5lGmLeOfdFWZ7L-134" value="接收、审查《软件研制任务书》" style="rounded=0;whiteSpace=wrap;html=1;shadow=1;fontSize=12;" parent="1" vertex="1">
          <mxGeometry x="217" y="140" width="250" height="30" as="geometry" />
        </mxCell>
        <mxCell id="5naSUm5lGmLeOfdFWZ7L-180" style="edgeStyle=orthogonalEdgeStyle;curved=0;rounded=1;sketch=0;orthogonalLoop=1;jettySize=auto;html=1;entryX=0.485;entryY=0.333;entryDx=0;entryDy=0;entryPerimeter=0;" parent="1" source="5naSUm5lGmLeOfdFWZ7L-152" target="5naSUm5lGmLeOfdFWZ7L-153" edge="1">
          <mxGeometry relative="1" as="geometry">
            <Array as="points">
              <mxPoint x="402" y="400" />
              <mxPoint x="402" y="400" />
            </Array>
          </mxGeometry>
        </mxCell>
        <mxCell id="5naSUm5lGmLeOfdFWZ7L-152" value="编写《软件需求规格说明》" style="rounded=0;whiteSpace=wrap;html=1;shadow=1;fontSize=12;" parent="1" vertex="1">
          <mxGeometry x="287" y="345.5" width="230" height="30" as="geometry" />
        </mxCell>
        <mxCell id="5naSUm5lGmLeOfdFWZ7L-156" style="edgeStyle=elbowEdgeStyle;rounded=0;orthogonalLoop=1;jettySize=auto;html=1;fontSize=12;endArrow=none;endFill=0;" parent="1" source="5naSUm5lGmLeOfdFWZ7L-151" target="5naSUm5lGmLeOfdFWZ7L-152" edge="1">
          <mxGeometry relative="1" as="geometry" />
        </mxCell>
        <mxCell id="5naSUm5lGmLeOfdFWZ7L-198" style="edgeStyle=orthogonalEdgeStyle;rounded=0;sketch=0;orthogonalLoop=1;jettySize=auto;html=1;endArrow=none;endFill=0;strokeColor=#000000;" parent="1" source="5naSUm5lGmLeOfdFWZ7L-153" target="5naSUm5lGmLeOfdFWZ7L-196" edge="1">
          <mxGeometry relative="1" as="geometry" />
        </mxCell>
        <mxCell id="5naSUm5lGmLeOfdFWZ7L-200" style="edgeStyle=orthogonalEdgeStyle;rounded=0;sketch=0;orthogonalLoop=1;jettySize=auto;html=1;endArrow=none;endFill=0;strokeColor=#000000;" parent="1" source="5naSUm5lGmLeOfdFWZ7L-153" target="5naSUm5lGmLeOfdFWZ7L-154" edge="1">
          <mxGeometry relative="1" as="geometry">
            <Array as="points">
              <mxPoint x="627" y="425" />
              <mxPoint x="627" y="355" />
            </Array>
          </mxGeometry>
        </mxCell>
        <mxCell id="5naSUm5lGmLeOfdFWZ7L-153" value="评审《软件需求规格说明》，纳入分配基线" style="rounded=0;whiteSpace=wrap;html=1;shadow=1;fontSize=12;" parent="1" vertex="1">
          <mxGeometry x="287" y="410" width="237" height="30" as="geometry" />
        </mxCell>
        <mxCell id="5naSUm5lGmLeOfdFWZ7L-195" style="edgeStyle=orthogonalEdgeStyle;rounded=0;sketch=0;orthogonalLoop=1;jettySize=auto;html=1;entryX=0;entryY=0.5;entryDx=0;entryDy=0;endArrow=none;endFill=0;strokeColor=#000000;" parent="1" source="5naSUm5lGmLeOfdFWZ7L-161" target="5naSUm5lGmLeOfdFWZ7L-165" edge="1">
          <mxGeometry relative="1" as="geometry" />
        </mxCell>
        <mxCell id="5naSUm5lGmLeOfdFWZ7L-161" value="需求影响分析，实施变更，重新纳入功能基线" style="rounded=0;whiteSpace=wrap;html=1;shadow=1;fontSize=12;" parent="1" vertex="1">
          <mxGeometry x="277" y="525.5" width="273" height="30" as="geometry" />
        </mxCell>
        <mxCell id="5naSUm5lGmLeOfdFWZ7L-194" style="edgeStyle=orthogonalEdgeStyle;rounded=0;sketch=0;orthogonalLoop=1;jettySize=auto;html=1;endArrow=none;endFill=0;strokeColor=#000000;" parent="1" source="5naSUm5lGmLeOfdFWZ7L-157" target="5naSUm5lGmLeOfdFWZ7L-161" edge="1">
          <mxGeometry relative="1" as="geometry" />
        </mxCell>
      </root>
    </mxGraphModel>
  </diagram>
</mxfile>
